<svg width="1728" height="280" viewBox="0 0 1728 280" fill="none" xmlns="http://www.w3.org/2000/svg">
<path fill-rule="evenodd" clip-rule="evenodd" d="M6 33.2823L17.5519 5H151.014L227.044 191.143H229.953V5H244.495H270.671H276.488V22.4508H270.671V31.1768H279.396V5H286.607L311.39 65.6757V275.488H296.849V275.489H218.32V275.488H6V33.2823ZM270.671 51.5361H279.396V246.404H236.236L218.32 271.334V275.488H90.3466V275.487H37.9938V68.9856H40.9023L99.1129 211.501H270.671V51.5361ZM298.044 5H360.834L463.486 255.129H485.899V275.488H408.055L298.044 7.90847V5ZM399.62 5H384.103L486.755 255.129H506.259V275.488H550V275.5H652V275.489H805.832V246.404L677.859 205.686H640.049V255H558.611V191.142H602.239V135.881L570.246 98.0713H558.611V51.5356H637.139L657.498 34.0847V5H558.611H554.61H506.259V217.319H486.755L399.62 5ZM805.833 141.698H768.023L640.05 100.98V71.8949H805.833V141.698ZM805.832 231.861H843.643V162.058H805.832V199.868L677.86 162.058V191.143L805.832 231.861ZM1343.9 5H1192.66L1163.58 34.0847V141.698L1186.84 162.058H1224.65L1224.65 140.244L1338.91 40H1343.9V42.8102V275.489H1354.02L1378.8 214.814V42.8102H1482.05L1509.68 74.8034H1538.77V109.705H1403.07V205.685L1411.8 214.41H1435.06L1491.78 164.966L1538.77 213.38V258.434L1532.95 272.581V275.489H1538.77H1548.89H1595.74L1698.4 25.3605H1716.19V269.672H1698.73V275.489H1718.19L1722 275.488V5H1716.19V5.00122H1642.96L1573.67 173.542V10.8182L1567.85 5.00122H1544.59V5H1375.49H1343.9ZM852.774 5H1035.6L1064.69 34.0842V5.00014H1154.85V60.2611L1122.85 98.0713H1064.69V188.234H1099.59V208.594H1064.69V228.953H1143.21L1163.57 246.404V275.488L1064.69 275.488H849.459V243.495L1003.61 140.244L852.774 7.90847V5ZM1207.2 188.234H1149.03V217.319L1169.39 234.77L1297.36 275.489H1335.17V205.685H1297.36V243.495L1207.2 216.857V188.234Z" fill="currentColor"/>
</svg>
